<svg width="772" height="842" viewBox="0 0 772 842" fill="none" xmlns="http://www.w3.org/2000/svg">
<path d="M134.8 843.999C142.7 778.599 157 748.999 157 748.999C172.5 716.999 185.4 705.399 192.9 697.899C211.4 679.399 258 654.599 290 644.999C293.3 646.599 302.3 651.199 310 654.499C317.7 657.799 327 662.499 336 664.999C345 667.499 354.3 669.699 364 669.499C373.7 669.299 384 667.599 394 663.999C404 660.399 414.3 653.799 424 647.999C433.7 642.199 443.3 634.699 452 628.999C460.7 623.299 468 617.999 476 613.999C484 609.999 495.999 606.499 499.999 604.999C545.999 607.499 611.499 659.399 645.499 723.499C660.499 751.699 673.899 823.699 677.499 843.999H134.8Z" fill="white"/>
<path d="M231.6 761.199L242.9 843.999H221.6L231.6 761.199Z" fill="#D9D8D9"/>
<path d="M567.399 756.499L583.399 836.999L576.699 843.999H562.299L567.399 756.499Z" fill="#D9D8D9"/>
<path d="M134.8 843.999C142.7 778.599 157 748.999 157 748.999C172.5 716.999 185.4 705.399 192.9 697.899C211.4 679.399 258 654.599 290 644.999C293.3 646.599 302.3 651.199 310 654.499C317.7 657.799 327 662.499 336 664.999C345 667.499 354.3 669.699 364 669.499C373.7 669.299 384 667.599 394 663.999C404 660.399 414.3 653.799 424 647.999C433.7 642.199 443.3 634.699 452 628.999C460.7 623.299 468 617.999 476 613.999C484 609.999 495.999 606.499 499.999 604.999C545.999 607.499 611.499 659.399 645.499 723.499C660.499 751.699 673.899 823.699 677.499 843.999" stroke="#0A0A0A" stroke-width="9.99999" stroke-linecap="round" stroke-linejoin="round"/>
</svg>
