<svg width="24" height="24" viewBox="0 0 24 24" fill="none" xmlns="http://www.w3.org/2000/svg">
<path d="M21.3181 7.141L20.8241 6.285C20.4511 5.637 20.2641 5.313 19.9461 5.184C19.6291 5.054 19.2701 5.157 18.5511 5.36L17.3311 5.704C16.8721 5.81 16.3911 5.75 15.9731 5.534L15.6361 5.34C15.277 5.10992 15.0009 4.7711 14.8481 4.373L14.5141 3.375C14.2941 2.715 14.1841 2.385 13.9231 2.197C13.6621 2.007 13.3141 2.007 12.6201 2.007H11.5051C10.8111 2.007 10.4641 2.007 10.2021 2.197C9.94105 2.385 9.83205 2.715 9.61205 3.375L9.27805 4.373C9.12493 4.77125 8.84847 5.11008 8.48905 5.34L8.15205 5.535C7.73405 5.75 7.25205 5.81 6.79405 5.705L5.57405 5.36C4.85505 5.157 4.49605 5.055 4.17905 5.184C3.86105 5.313 3.67405 5.637 3.30105 6.284L2.80805 7.141C2.45805 7.749 2.28305 8.052 2.31705 8.375C2.35105 8.699 2.58505 8.959 3.05305 9.48L4.08405 10.633C4.33605 10.952 4.51505 11.508 4.51505 12.008C4.51505 12.508 4.33605 13.064 4.08505 13.383L3.05305 14.535C2.58505 15.056 2.35105 15.317 2.31705 15.64C2.28305 15.963 2.45705 16.267 2.80705 16.874L3.30105 17.731C3.67405 18.378 3.86105 18.702 4.17905 18.831C4.49705 18.96 4.85505 18.859 5.57405 18.655L6.79405 18.311C7.25294 18.206 7.73418 18.2662 8.15305 18.481L8.48905 18.675C8.84905 18.905 9.12505 19.245 9.27705 19.643L9.61105 20.64C9.83105 21.3 9.94105 21.63 10.2021 21.82C10.4641 22.008 10.8111 22.008 11.5051 22.008H12.6201C13.3141 22.008 13.6621 22.008 13.9231 21.819C14.1841 21.63 14.2941 21.3 14.5131 20.64L14.8481 19.643C15.0001 19.244 15.2761 18.905 15.6361 18.675L15.9721 18.481C16.3921 18.266 16.8721 18.205 17.3321 18.311L18.5521 18.655C19.2701 18.859 19.6291 18.961 19.9461 18.832C20.2641 18.702 20.4511 18.378 20.8241 17.731L21.3171 16.874C21.6671 16.267 21.8421 15.964 21.8081 15.64C21.7741 15.316 21.5401 15.056 21.0721 14.535L20.0411 13.383C19.7891 13.063 19.6101 12.508 19.6101 12.008C19.6101 11.508 19.7891 10.952 20.0401 10.633L21.0721 9.48C21.5401 8.96 21.7741 8.699 21.8081 8.375C21.8421 8.051 21.6681 7.749 21.3181 7.141Z" stroke="#0A0A0A" stroke-width="1.5" stroke-linecap="round"/>
<path d="M15.52 12C15.52 12.9283 15.1513 13.8185 14.4949 14.4749C13.8385 15.1313 12.9483 15.5 12.02 15.5C11.0918 15.5 10.2015 15.1313 9.54515 14.4749C8.88877 13.8185 8.52002 12.9283 8.52002 12C8.52002 11.0717 8.88877 10.1815 9.54515 9.52513C10.2015 8.86875 11.0918 8.5 12.02 8.5C12.9483 8.5 13.8385 8.86875 14.4949 9.52513C15.1513 10.1815 15.52 11.0717 15.52 12Z" stroke="#0A0A0A" stroke-width="1.5"/>
</svg>
