<svg width="772" height="842" viewBox="0 0 772 842" fill="none" xmlns="http://www.w3.org/2000/svg">
<path d="M262 250C265.6 254.7 274.7 267.7 282 276C289.3 284.3 298 292.3 306 300C314 307.7 325.7 318 330 322C331.4 318 336.6 304 338 300C343.4 301.3 356.3 304.7 368 307C379.7 309.3 395.5 310.7 408 314C420.5 317.3 433.3 320.8 443 327C452.7 333.2 460.2 342.3 466 351C471.8 359.7 475 370.5 478 379C481 387.5 482.9 397.9 484 402C485.4 400.2 490.6 393.8 492 392C492.2 386.7 493.5 372.9 492.9 362.4C492.3 352 490.8 340.1 488.3 329.3C485.9 318.5 482.4 307.1 478.2 297.5C474.1 287.9 469 279.2 463.4 271.8C457.8 264.3 451.3 257.8 444.5 252.7C437.8 247.6 430.6 244.4 423 241.1C415.5 237.8 408 235.5 399.2 232.7C390.4 229.9 380.7 226.6 370.4 224.4C360.1 222.2 348.9 219.9 337.5 219.3C326 218.8 313.2 218.9 301.5 221.1C289.8 223.4 276.2 228.9 267.3 232.9C258.4 236.8 251.6 242.7 248.1 244.8C250.6 245.7 259.5 249.1 262 250Z" fill="#0A0A0A"/>
</svg>
