<svg width="24" height="24" viewBox="0 0 24 24" fill="none" xmlns="http://www.w3.org/2000/svg">
<path d="M9.143 10.691L9.35 10.484C9.82052 10.0135 10.3791 9.64024 10.9939 9.38559C11.6087 9.13094 12.2676 8.99988 12.933 8.99988C13.5984 8.99988 14.2573 9.13094 14.8721 9.38559C15.4869 9.64024 16.0455 10.0135 16.516 10.484C16.9865 10.9545 17.3598 11.5131 17.6144 12.1279C17.8691 12.7427 18.0001 13.4016 18.0001 14.067C18.0001 14.7324 17.8691 15.3913 17.6144 16.0061C17.3598 16.6209 16.9865 17.1795 16.516 17.65L13.65 20.516C13.1795 20.9865 12.6209 21.3598 12.0061 21.6144C11.3913 21.8691 10.7324 22.0001 10.067 22.0001C9.40157 22.0001 8.74266 21.8691 8.12789 21.6144C7.51312 21.3598 6.95452 20.9865 6.484 20.516C6.01347 20.0455 5.64023 19.4869 5.38558 18.8721C5.13094 18.2573 4.99987 17.5984 4.99987 16.933C4.99987 16.2676 5.13094 15.6087 5.38558 14.9939C5.64023 14.3791 6.01347 13.8205 6.484 13.35L6.948 12.886" stroke="#0A0A0A" stroke-width="1.5" stroke-linecap="round"/>
<path d="M17.052 11.114L17.516 10.65C17.9865 10.1795 18.3598 9.62088 18.6144 9.00611C18.8691 8.39134 19.0001 7.73243 19.0001 7.06701C19.0001 6.40158 18.8691 5.74267 18.6144 5.1279C18.3598 4.51313 17.9865 3.95453 17.516 3.48401C17.0455 3.01348 16.4869 2.64024 15.8721 2.38559C15.2573 2.13094 14.5984 1.99988 13.933 1.99988C13.2676 1.99988 12.6087 2.13094 11.9939 2.38559C11.3791 2.64024 10.8205 3.01348 10.35 3.48401L7.484 6.35001C7.01347 6.82053 6.64023 7.37913 6.38558 7.9939C6.13094 8.60867 5.99987 9.26758 5.99987 9.933C5.99987 10.5984 6.13094 11.2573 6.38558 11.8721C6.64023 12.4869 7.01347 13.0455 7.484 13.516C7.95452 13.9865 8.51312 14.3598 9.12789 14.6144C9.74266 14.8691 10.4016 15.0001 11.067 15.0001C11.7324 15.0001 12.3913 14.8691 13.0061 14.6144C13.6209 14.3598 14.1795 13.9865 14.65 13.516L14.857 13.309" stroke="#0A0A0A" stroke-width="1.5" stroke-linecap="round"/>
</svg>
